<?xml version="1.0" encoding="utf-8"?>
<!-- Generator: Adobe Illustrator 21.0.2, SVG Export Plug-In . SVG Version: 6.00 Build 0)  -->
<svg version="1.2" baseProfile="tiny" id="Warstwa_1"
	 xmlns="http://www.w3.org/2000/svg" xmlns:xlink="http://www.w3.org/1999/xlink" x="0px" y="0px" viewBox="0 0 202.5 52.8"
	 xml:space="preserve">
<g>
	<path fill="#333333" d="M124,34.2c-1.1,0-2.1-0.2-3-0.6c-0.9-0.4-1.7-0.9-2.4-1.6c-0.7-0.7-1.2-1.5-1.6-2.4
		c-0.4-0.9-0.6-1.9-0.6-2.9v-0.1c0-1,0.2-2,0.6-2.9c0.4-0.9,0.9-1.7,1.6-2.4c0.7-0.7,1.5-1.2,2.4-1.6c0.9-0.4,2-0.6,3.1-0.6
		c1.5,0,2.7,0.3,3.7,0.9c1,0.6,1.8,1.4,2.4,2.3l-3.4,2.6c-0.4-0.5-0.7-0.8-1.1-1.1c-0.4-0.3-0.9-0.4-1.5-0.4c-0.4,0-0.8,0.1-1.1,0.3
		c-0.3,0.2-0.6,0.4-0.9,0.7c-0.2,0.3-0.4,0.6-0.6,1c-0.1,0.4-0.2,0.8-0.2,1.2v0.1c0,0.5,0.1,0.9,0.2,1.3c0.1,0.4,0.3,0.7,0.6,1
		c0.2,0.3,0.5,0.5,0.9,0.7c0.4,0.2,0.7,0.3,1.2,0.3c0.6,0,1.1-0.1,1.5-0.4c0.4-0.3,0.8-0.6,1.2-1.1l3.4,2.4c-0.7,1-1.5,1.8-2.5,2.4
		C126.9,33.9,125.6,34.2,124,34.2z"/>
	<path fill="#333333" d="M140.6,34.2c-1.2,0-2.2-0.2-3.2-0.6c-1-0.4-1.8-0.9-2.5-1.6c-0.7-0.7-1.3-1.5-1.6-2.4
		c-0.4-0.9-0.6-1.9-0.6-2.9v-0.1c0-1,0.2-2,0.6-2.9c0.4-0.9,0.9-1.7,1.7-2.4c0.7-0.7,1.6-1.2,2.5-1.6c1-0.4,2-0.6,3.2-0.6
		c1.2,0,2.2,0.2,3.2,0.6c1,0.4,1.8,0.9,2.5,1.6c0.7,0.7,1.3,1.5,1.7,2.4c0.4,0.9,0.6,1.9,0.6,2.9v0.1c0,1-0.2,2-0.6,2.9
		c-0.4,0.9-1,1.7-1.7,2.4c-0.7,0.7-1.6,1.2-2.5,1.6C142.8,34,141.7,34.2,140.6,34.2z M140.6,29.9c0.5,0,0.9-0.1,1.2-0.3
		c0.4-0.2,0.7-0.4,0.9-0.7c0.3-0.3,0.5-0.6,0.6-1c0.1-0.4,0.2-0.8,0.2-1.2v-0.1c0-0.4-0.1-0.9-0.2-1.2c-0.2-0.4-0.4-0.7-0.6-1
		c-0.3-0.3-0.6-0.5-1-0.7c-0.4-0.2-0.8-0.3-1.2-0.3c-0.5,0-0.9,0.1-1.2,0.2c-0.4,0.2-0.7,0.4-0.9,0.7c-0.3,0.3-0.5,0.6-0.6,1
		c-0.1,0.4-0.2,0.8-0.2,1.2v0.1c0,0.4,0.1,0.9,0.2,1.2c0.2,0.4,0.4,0.7,0.6,1c0.3,0.3,0.6,0.5,1,0.7
		C139.8,29.8,140.2,29.9,140.6,29.9z"/>
	<path fill="#333333" d="M157.3,34.2c-0.8,0-1.7-0.2-2.4-0.5c-0.8-0.3-1.4-0.8-2-1.5c-0.6-0.6-1-1.4-1.4-2.3c-0.3-0.9-0.5-2-0.5-3.1
		v-0.1c0-1.2,0.2-2.2,0.5-3.2c0.3-0.9,0.8-1.7,1.4-2.4c0.6-0.6,1.3-1.1,2-1.5c0.8-0.3,1.6-0.5,2.4-0.5c1.1,0,2,0.2,2.7,0.6
		c0.7,0.4,1.3,0.9,1.8,1.4v-6.8h5.1v19.4h-5.1l0-1.9c-0.5,0.6-1.1,1.1-1.8,1.6C159.3,34,158.4,34.2,157.3,34.2z M158.9,30
		c0.4,0,0.8-0.1,1.1-0.2c0.4-0.2,0.7-0.4,0.9-0.7c0.3-0.3,0.5-0.6,0.6-1c0.1-0.4,0.2-0.8,0.2-1.3v-0.1c0-0.5-0.1-0.9-0.2-1.3
		c-0.2-0.4-0.4-0.7-0.6-1c-0.3-0.3-0.6-0.5-0.9-0.7c-0.4-0.2-0.7-0.2-1.1-0.2c-0.4,0-0.8,0.1-1.1,0.2c-0.4,0.2-0.7,0.4-0.9,0.7
		c-0.3,0.3-0.5,0.6-0.6,1c-0.2,0.4-0.2,0.8-0.2,1.3v0.1c0,0.5,0.1,0.9,0.2,1.3c0.2,0.4,0.4,0.7,0.6,1c0.3,0.3,0.6,0.5,0.9,0.7
		C158.1,29.9,158.4,30,158.9,30z"/>
	<path fill="#333333" d="M177.5,34.2c-1.1,0-2.2-0.2-3.1-0.5c-0.9-0.4-1.8-0.9-2.4-1.5c-0.7-0.6-1.2-1.4-1.6-2.4
		c-0.4-0.9-0.6-1.9-0.6-3.1v-0.1c0-1,0.2-2,0.5-2.9c0.4-0.9,0.9-1.7,1.5-2.4c0.7-0.7,1.4-1.2,2.3-1.6c0.9-0.4,1.9-0.6,2.9-0.6
		c1.2,0,2.3,0.2,3.2,0.6c0.9,0.4,1.7,1,2.3,1.7c0.6,0.7,1,1.6,1.3,2.5c0.3,0.9,0.4,2,0.4,3c0,0.2,0,0.3,0,0.5c0,0.2,0,0.4,0,0.5
		h-9.6c0.2,0.8,0.6,1.4,1.1,1.8c0.5,0.4,1.2,0.6,2,0.6c0.6,0,1.2-0.1,1.7-0.3c0.5-0.2,1-0.6,1.5-1.1l2.8,2.3
		c-0.7,0.9-1.5,1.6-2.6,2.1C180.1,33.9,178.9,34.2,177.5,34.2z M179.5,25.5c-0.1-0.8-0.4-1.4-0.8-1.9c-0.4-0.5-1-0.7-1.7-0.7
		c-0.7,0-1.2,0.2-1.6,0.7c-0.4,0.5-0.7,1.1-0.9,1.9H179.5z"/>
	<path fill="#333333" d="M193.5,34.2c-1.2,0-2.4-0.2-3.6-0.5c-1.2-0.3-2.2-0.9-3.2-1.6l1.9-3.1c0.8,0.6,1.7,1,2.5,1.2
		c0.9,0.3,1.7,0.4,2.4,0.4c0.9,0,1.3-0.3,1.3-0.8v-0.1c0-0.3-0.2-0.5-0.6-0.7c-0.4-0.2-1-0.3-1.7-0.6c-0.7-0.2-1.4-0.4-2-0.6
		c-0.6-0.2-1.2-0.5-1.6-0.9c-0.5-0.3-0.8-0.8-1.1-1.3c-0.3-0.5-0.4-1.1-0.4-1.8V24c0-0.8,0.2-1.4,0.4-2c0.3-0.6,0.7-1.1,1.2-1.5
		c0.5-0.4,1.1-0.7,1.8-0.9c0.7-0.2,1.5-0.3,2.3-0.3c1.1,0,2.1,0.1,3.1,0.4c1,0.3,2,0.7,2.8,1.2l-1.7,3.2c-0.7-0.4-1.5-0.7-2.3-1
		c-0.8-0.2-1.4-0.4-2-0.4c-0.4,0-0.7,0.1-0.9,0.2c-0.2,0.1-0.3,0.3-0.3,0.5v0.1c0,0.3,0.2,0.5,0.6,0.7c0.4,0.2,1,0.4,1.7,0.6
		c0.7,0.2,1.4,0.4,2,0.7c0.6,0.2,1.2,0.5,1.6,0.9c0.5,0.3,0.8,0.8,1.1,1.3c0.3,0.5,0.4,1.1,0.4,1.8v0.1c0,0.8-0.1,1.5-0.4,2.1
		c-0.3,0.6-0.7,1.1-1.2,1.5c-0.5,0.4-1.1,0.7-1.9,0.9C195.2,34.1,194.4,34.2,193.5,34.2z"/>
	<g>
		<path fill="#333333" d="M117.4,40.5h0.9l2.6,7.4l2.6-7.5h0.6l2.6,7.5l2.6-7.4h0.9L127,49h-0.7l-2.5-7.3l-2.5,7.3h-0.7L117.4,40.5z
			"/>
		<path fill="#333333" d="M132.7,36.9h0.8v5.2c0.3-0.5,0.7-0.9,1.2-1.3c0.5-0.3,1.1-0.5,1.9-0.5c0.5,0,1,0.1,1.4,0.3
			c0.4,0.2,0.8,0.4,1.1,0.7c0.3,0.3,0.5,0.7,0.7,1.1c0.1,0.4,0.2,0.9,0.2,1.4V49h-0.8v-5c0-0.9-0.2-1.6-0.7-2.1
			c-0.5-0.5-1.1-0.8-2-0.8c-0.4,0-0.8,0.1-1.2,0.2c-0.4,0.2-0.7,0.4-0.9,0.6c-0.3,0.3-0.5,0.6-0.6,1c-0.2,0.4-0.2,0.8-0.2,1.2V49
			h-0.8V36.9z"/>
		<path fill="#333333" d="M147,49.2c-0.6,0-1.2-0.1-1.7-0.4c-0.5-0.2-1-0.6-1.4-1c-0.4-0.4-0.7-0.9-0.9-1.4
			c-0.2-0.5-0.3-1.1-0.3-1.7v0c0-0.6,0.1-1.2,0.3-1.7c0.2-0.5,0.5-1,0.9-1.4c0.4-0.4,0.9-0.7,1.4-1c0.5-0.2,1.1-0.4,1.7-0.4
			c0.6,0,1.2,0.1,1.7,0.4c0.5,0.2,1,0.6,1.4,1c0.4,0.4,0.7,0.9,0.9,1.4c0.2,0.5,0.3,1.1,0.3,1.7v0c0,0.6-0.1,1.2-0.3,1.7
			c-0.2,0.5-0.5,1-0.9,1.4c-0.4,0.4-0.9,0.7-1.4,1C148.2,49.1,147.6,49.2,147,49.2z M147,48.4c0.5,0,1-0.1,1.4-0.3
			c0.4-0.2,0.8-0.5,1.1-0.8c0.3-0.3,0.5-0.7,0.7-1.2c0.2-0.4,0.3-0.9,0.3-1.4v0c0-0.5-0.1-1-0.3-1.4c-0.2-0.4-0.4-0.8-0.7-1.2
			c-0.3-0.3-0.7-0.6-1.1-0.8c-0.4-0.2-0.9-0.3-1.4-0.3c-0.5,0-1,0.1-1.4,0.3c-0.4,0.2-0.8,0.5-1.1,0.8c-0.3,0.3-0.5,0.7-0.7,1.1
			c-0.2,0.4-0.3,0.9-0.3,1.4v0c0,0.5,0.1,1,0.3,1.4c0.2,0.4,0.4,0.8,0.7,1.2c0.3,0.3,0.7,0.6,1.1,0.8C146,48.3,146.5,48.4,147,48.4z
			"/>
		<path fill="#333333" d="M154.3,36.9h0.8V49h-0.8V36.9z"/>
		<path fill="#333333" d="M162.2,49.2c-0.6,0-1.1-0.1-1.6-0.3c-0.5-0.2-0.9-0.5-1.3-0.9c-0.4-0.4-0.7-0.9-0.9-1.4
			c-0.2-0.5-0.3-1.1-0.3-1.8v0c0-0.6,0.1-1.2,0.3-1.7c0.2-0.5,0.5-1,0.9-1.4c0.4-0.4,0.8-0.7,1.3-0.9c0.5-0.2,1-0.3,1.6-0.3
			c0.6,0,1.1,0.1,1.6,0.3c0.5,0.2,0.9,0.5,1.2,0.9c0.3,0.4,0.6,0.9,0.8,1.4c0.2,0.5,0.3,1.1,0.3,1.8c0,0.1,0,0.1,0,0.2
			c0,0,0,0.1,0,0.2h-7c0,0.5,0.2,1,0.3,1.4c0.2,0.4,0.5,0.8,0.7,1c0.3,0.3,0.6,0.5,1,0.7c0.4,0.1,0.8,0.2,1.2,0.2
			c0.7,0,1.2-0.1,1.7-0.4c0.5-0.3,0.9-0.6,1.2-0.9l0.6,0.5c-0.4,0.5-0.9,0.9-1.5,1.2C163.7,49,163,49.2,162.2,49.2z M165.1,44.3
			c0-0.4-0.1-0.8-0.3-1.2c-0.1-0.4-0.3-0.7-0.6-1c-0.2-0.3-0.6-0.5-0.9-0.7c-0.4-0.2-0.8-0.3-1.3-0.3c-0.4,0-0.8,0.1-1.2,0.3
			c-0.4,0.2-0.7,0.4-1,0.7c-0.3,0.3-0.5,0.6-0.7,1c-0.2,0.4-0.3,0.8-0.3,1.3H165.1z"/>
		<path fill="#333333" d="M171.5,49.1c-0.6,0-1.2-0.1-1.9-0.3c-0.6-0.2-1.2-0.5-1.6-0.9l0.5-0.7c0.5,0.4,1,0.6,1.5,0.8
			c0.5,0.2,1,0.3,1.6,0.3c0.6,0,1.1-0.1,1.5-0.4c0.4-0.3,0.6-0.7,0.6-1.2v0c0-0.2-0.1-0.5-0.2-0.6c-0.1-0.2-0.3-0.3-0.5-0.5
			c-0.2-0.1-0.5-0.2-0.7-0.3c-0.3-0.1-0.5-0.2-0.8-0.3c-0.3-0.1-0.7-0.2-1-0.3c-0.3-0.1-0.7-0.3-0.9-0.4c-0.3-0.2-0.5-0.4-0.7-0.6
			c-0.2-0.3-0.3-0.6-0.3-0.9v0c0-0.3,0.1-0.7,0.2-0.9c0.1-0.3,0.3-0.5,0.6-0.7c0.2-0.2,0.5-0.4,0.9-0.5c0.3-0.1,0.7-0.2,1.1-0.2
			c0.5,0,1,0.1,1.6,0.3c0.5,0.2,1,0.4,1.4,0.7l-0.4,0.7c-0.4-0.2-0.8-0.5-1.3-0.6c-0.4-0.2-0.9-0.2-1.4-0.2c-0.6,0-1.1,0.1-1.4,0.4
			c-0.4,0.3-0.5,0.6-0.5,1v0c0,0.2,0.1,0.4,0.2,0.6c0.1,0.2,0.3,0.3,0.5,0.4c0.2,0.1,0.5,0.2,0.8,0.3c0.3,0.1,0.6,0.2,0.9,0.3
			c0.3,0.1,0.7,0.2,1,0.3c0.3,0.1,0.6,0.3,0.9,0.4c0.3,0.2,0.5,0.4,0.6,0.7c0.2,0.3,0.2,0.6,0.2,0.9v0c0,0.4-0.1,0.7-0.2,1
			c-0.2,0.3-0.4,0.6-0.6,0.8c-0.3,0.2-0.6,0.4-0.9,0.5C172.3,49.1,171.9,49.1,171.5,49.1z"/>
		<path fill="#333333" d="M180,49.2c-0.4,0-0.8-0.1-1.2-0.2c-0.4-0.1-0.7-0.3-1-0.5c-0.3-0.2-0.6-0.5-0.8-0.8
			c-0.2-0.3-0.3-0.7-0.3-1.2v0c0-0.4,0.1-0.8,0.3-1.2c0.2-0.3,0.4-0.6,0.8-0.9c0.3-0.2,0.7-0.4,1.2-0.5c0.5-0.1,1-0.2,1.5-0.2
			c0.6,0,1.1,0,1.5,0.1c0.4,0.1,0.9,0.2,1.3,0.3v-0.4c0-0.9-0.2-1.5-0.7-1.9c-0.5-0.4-1.2-0.6-2.1-0.6c-0.5,0-1,0.1-1.4,0.2
			c-0.4,0.1-0.8,0.3-1.2,0.5l-0.3-0.7c0.5-0.2,0.9-0.4,1.4-0.5c0.5-0.1,1-0.2,1.6-0.2c1.2,0,2.1,0.3,2.7,0.9
			c0.6,0.6,0.9,1.4,0.9,2.4V49h-0.8v-1.4c-0.1,0.2-0.3,0.4-0.5,0.6c-0.2,0.2-0.4,0.4-0.7,0.5c-0.3,0.1-0.6,0.3-0.9,0.4
			C180.7,49.1,180.4,49.2,180,49.2z M180,48.4c0.4,0,0.8-0.1,1.2-0.2c0.4-0.1,0.7-0.3,1-0.5c0.3-0.2,0.5-0.5,0.7-0.8
			c0.2-0.3,0.3-0.7,0.3-1.1v-1c-0.4-0.1-0.8-0.2-1.2-0.3c-0.5-0.1-1-0.1-1.6-0.1c-0.9,0-1.6,0.2-2.1,0.5c-0.5,0.4-0.7,0.8-0.7,1.4v0
			c0,0.3,0.1,0.6,0.2,0.8c0.1,0.2,0.3,0.4,0.5,0.6c0.2,0.2,0.5,0.3,0.8,0.4C179.4,48.4,179.7,48.4,180,48.4z"/>
		<path fill="#333333" d="M187.4,36.9h0.8V49h-0.8V36.9z"/>
		<path fill="#333333" d="M195.3,49.2c-0.6,0-1.1-0.1-1.6-0.3c-0.5-0.2-0.9-0.5-1.3-0.9c-0.4-0.4-0.7-0.9-0.9-1.4
			c-0.2-0.5-0.3-1.1-0.3-1.8v0c0-0.6,0.1-1.2,0.3-1.7c0.2-0.5,0.5-1,0.8-1.4c0.4-0.4,0.8-0.7,1.3-0.9c0.5-0.2,1-0.3,1.6-0.3
			c0.6,0,1.1,0.1,1.6,0.3c0.5,0.2,0.9,0.5,1.2,0.9c0.3,0.4,0.6,0.9,0.8,1.4c0.2,0.5,0.3,1.1,0.3,1.8c0,0.1,0,0.1,0,0.2
			c0,0,0,0.1,0,0.2h-7c0,0.5,0.1,1,0.3,1.4c0.2,0.4,0.4,0.8,0.7,1c0.3,0.3,0.6,0.5,1,0.7c0.4,0.1,0.8,0.2,1.2,0.2
			c0.7,0,1.2-0.1,1.7-0.4c0.5-0.3,0.9-0.6,1.2-0.9l0.6,0.5c-0.4,0.5-0.9,0.9-1.5,1.2C196.8,49,196.1,49.2,195.3,49.2z M198.2,44.3
			c0-0.4-0.1-0.8-0.3-1.2c-0.1-0.4-0.3-0.7-0.6-1c-0.2-0.3-0.6-0.5-0.9-0.7c-0.4-0.2-0.8-0.3-1.3-0.3c-0.4,0-0.8,0.1-1.2,0.3
			c-0.4,0.2-0.7,0.4-1,0.7c-0.3,0.3-0.5,0.6-0.7,1c-0.2,0.4-0.3,0.8-0.3,1.3H198.2z"/>
	</g>
</g>
<rect x="18.5" y="4.2" fill="#18829B" width="15" height="15"/>
<rect x="18.5" y="34.2" fill="#176A78" width="15" height="15"/>
<rect x="3.5" y="19.2" fill="#4DBBCE" width="15" height="15"/>
<rect x="33.5" y="19.2" fill="#48FFB0" width="15" height="15"/>
<rect x="48.5" y="34.2" fill="#44E099" width="15" height="15"/>
<rect x="63.5" y="19.2" fill="#23E8B4" width="15" height="15"/>
<rect x="78.5" y="34.2" fill="#4AFFC7" width="15" height="15"/>
<rect x="93.5" y="19.2" fill="#48FFB0" width="15" height="15"/>
</svg>
